<?xml version="1.0" encoding="utf-8" ?><!-- created by svgstack.com | Attribution is required. --><svg xmlns="http://www.w3.org/2000/svg" xmlns:xlink="http://www.w3.org/1999/xlink" width="1024" height="1024"><path fill="#2B2B2B" transform="scale(2 2)" d="M253.462 78.6212C262.024 77.6604 268.975 84.4003 275.633 88.8093C279.221 91.1846 302.003 106.733 305.323 107.279C309.448 107.958 318.017 107.474 322.509 107.473L360.149 107.453C383.662 107.434 383.771 108.409 383.769 129.713L383.75 153.349C398.026 163.355 415.152 173.504 430.085 182.934C454.836 198.564 452.246 192.409 452.249 221.149L452.266 415.553C452.105 432.204 435.063 428.305 423.754 428.303L260.238 428.307L86.2637 428.312C59.5101 428.318 60.204 429.219 60.2483 399.432L60.2404 208.318C60.2471 196.523 61.926 195.683 72.2269 188.986L112.747 162.579C118.001 159.125 123.374 155.857 128.553 152.289C128.719 144.485 128.541 136.64 128.538 128.831C128.53 104.837 133.695 107.456 153.608 107.464L187.089 107.47C193.165 107.469 199.409 107.752 205.465 107.323C213.977 106.719 241.732 81.8276 253.462 78.6212ZM151.997 131.247C151.786 134.66 151.972 138.083 151.989 141.5L152.002 215.902C152.004 225.371 152.354 234.961 151.997 244.415L224.524 292.134C234.011 298.292 246.217 307.56 256.165 312.473C261.834 309.1 267.226 305.239 272.75 301.634L301.386 283.027C307.164 279.215 312.811 275.218 318.636 271.475C331.538 263.364 347.329 253.462 359.608 244.415C359.837 231.789 359.608 219.122 359.607 206.492L359.608 131.247C352.457 131.422 345.27 131.25 338.115 131.249L151.997 131.247ZM105.312 403.729C108.226 403.684 110.87 403.653 113.708 404.476L113.451 404.566C114.365 404.911 115.121 404.962 116.093 404.99C119.829 405.249 123.757 405.001 127.509 404.998L368.884 404.989C381.937 404.99 395.508 405.625 408.357 405.498C377.063 377.498 344.471 349.936 312.211 322.947C307.997 319.421 303.186 316.337 299.289 312.473C289.365 318.524 279.698 325.083 269.921 331.376C254.58 341.252 258.525 342.082 243.934 332.493C235.244 326.783 221.169 316.659 212.472 312.473C208.855 314.176 205.678 317.591 202.625 320.171L131.716 380.843C122.924 388.418 113.661 395.684 105.312 403.729ZM83.6586 227.649L83.6586 391.286C87.2001 386.838 92.0599 383.208 96.3662 379.51L119.952 359.605C127.226 353.447 134.108 346.565 141.606 340.71L173.638 313.255C178.759 308.878 185.851 301.93 191.59 298.708C188.821 295.637 184.661 293.519 181.206 291.276L94.0939 234.373C90.663 232.14 87.2573 229.583 83.6586 227.649ZM428.136 228.238C424.206 229.927 420.746 232.449 417.198 234.806L331.318 291.651C327.716 293.993 324.225 296.559 320.505 298.708L361.932 333.726C365.133 336.46 368.247 339.455 371.581 342.015C389.248 356.896 411.832 375.088 428.136 391.286L428.134 258.915C428.135 254.884 428.482 229.107 428.136 228.238ZM383.75 180.745C383.458 196.539 383.653 212.438 383.75 228.238C391.497 224.228 398.292 218.331 405.971 214.217C410.376 210.672 415.517 208.121 420 204.707C407.997 196.592 395.793 188.911 383.75 180.745ZM128.553 180.745C117.08 189.46 104.159 196.427 92.3423 204.707C97.2342 207.77 101.914 211.296 106.875 214.217C113.043 218.429 122.037 225.15 128.553 228.238C128.551 223.403 128.88 181.55 128.553 180.745ZM105.312 403.729C104.609 404.297 103.934 404.86 103.293 405.498C107.514 405.497 111.906 405.501 116.093 404.99C115.121 404.962 114.365 404.911 113.451 404.566L113.708 404.476C110.87 403.653 108.226 403.684 105.312 403.729ZM256.165 104.236C254.304 105.268 252.391 106.254 250.636 107.459C252.169 107.389 253.655 107.353 255.188 107.459L260.238 107.459C258.944 106.287 257.576 105.263 256.165 104.236Z"/><path fill="#2B2B2B" transform="scale(2 2)" d="M182.753 225.076L329.367 225.076C329.489 233.126 329.377 241.191 329.367 249.242L182.753 249.242L182.753 225.076Z"/><path fill="#2B2B2B" transform="scale(2 2)" d="M324.344 156.254C326.034 156.173 327.677 156.16 329.367 156.254C329.056 164.372 329.369 172.616 329.367 180.745L188.375 180.745L182.753 180.745L182.753 156.254L324.344 156.254Z"/><path fill="#2B2B2B" transform="scale(2 2)" d="M182.753 190.498L329.367 190.498L329.367 215.358C313.028 215.569 296.659 215.359 280.317 215.358L182.753 215.358L182.753 190.498Z"/></svg> 